<svg width="1792" height="1792" xmlns="http://www.w3.org/2000/svg">

 <g>
  <title>background</title>
  <rect fill="none" id="canvas_background" height="402" width="582" y="-1" x="-1"/>
 </g>
 <g>
  <title>Layer 1</title>
  <path stroke="null" transform="rotate(-179.72113037109375 896.1906127929686,913.4215087890624) " fill="#ff7f00" id="svg_1" d="m561.594674,1352.421524l-48.774916,50q-9.754983,10 -22.436461,10t-22.436461,-10l-454.582217,-466q-9.754983,-10 -9.754983,-23t9.754983,-23l454.582217,-466q9.754983,-10 22.436461,-10t22.436461,10l48.774916,50q9.754983,10 9.754983,23t-9.754983,23l-383.370839,393l383.370839,393q9.754983,10 9.754983,23t-9.754983,23zm576.519506,-1067l-363.860873,1291q-3.901993,13 -15.120224,19.5t-22.92421,2.5l-60.480896,-17q-12.681478,-4 -19.022217,-15.5t-2.438746,-24.5l363.860873,-1291q3.901993,-13 15.120224,-19.5t22.92421,-2.5l60.480896,17q12.681478,4 19.022217,15.5t2.438746,24.5zm640.902395,651l-454.582217,466q-9.754983,10 -22.436461,10t-22.436461,-10l-48.774916,-50q-9.754983,-10 -9.754983,-23t9.754983,-23l383.370839,-393l-383.370839,-393q-9.754983,-10 -9.754983,-23t9.754983,-23l48.774916,-50q9.754983,-10 22.436461,-10t22.436461,10l454.582217,466q9.754983,10 9.754983,23t-9.754983,23z"/>
 </g>
</svg>