<svg width="512" height="512" xmlns="http://www.w3.org/2000/svg">

 <g>
  <title>background</title>
  <rect fill="none" id="canvas_background" height="402" width="582" y="-1" x="-1"/>
 </g>
 <g>
  <title>Layer 1</title>
  <path fill="#00bf5f" id="svg_2" d="m256,0c-88.359,0 -160,71.625 -160,160c0,24.75 5.625,48.219 15.672,69.125c0.562,1.188 144.328,282.875 144.328,282.875l142.594,-279.375c11.125,-21.781 17.406,-46.469 17.406,-72.625c0,-88.375 -71.625,-160 -160,-160zm0,256c-53.016,0 -96,-43 -96,-96s42.984,-96 96,-96c53,0 96,43 96,96s-43,96 -96,96z"/>
 </g>
</svg>